<svg xmlns="http://www.w3.org/2000/svg" xmlns:xlink="http://www.w3.org/1999/xlink" viewBox="0 0 641.13 99.71"><defs><style>.cls-1{fill:#231815;}.cls-2{fill:#9b0000;}.cls-3{fill:url(#未命名的渐变_110);}.cls-4{fill:#005ead;}</style><linearGradient id="未命名的渐变_110" x1="184.43" y1="-174.97" x2="244.7" y2="-70.58" gradientTransform="translate(0 180.74)" gradientUnits="userSpaceOnUse"><stop offset="0" stop-color="#6dc8eb"/><stop offset="0" stop-color="#007dc3"/><stop offset="1" stop-color="#004ea0"/></linearGradient></defs><title>资源 3</title><g id="图层_2" data-name="图层 2"><g id="图层_1-2" data-name="图层 1"><rect class="cls-1" x="116.74" width="0.5" height="99.71"/><path class="cls-2" d="M32.82,92.48l-.07,0q-.61-.32-1.51-.73T29.35,91l0-.07.12-.28.07,0,.46.16a2.15,2.15,0,0,0,.53.15.31.31,0,0,0,.2-.11,9.11,9.11,0,0,0,.86-1.66L32.08,88c.15-.33.34-.76.56-1.28l.14-.34q.1-.22,0-.27a1.31,1.31,0,0,0-.31,0l-1.28,0,0-.06a5.71,5.71,0,0,0,.16-.61l0,0q1.39.21,3.19.32l.06.11-.41.76c-.07.12-.24.48-.51,1l-.81,1.75A16.05,16.05,0,0,0,32,91.48a.22.22,0,0,0,.08.19,6.15,6.15,0,0,0,.81.46l0,.07Z"/><path class="cls-2" d="M45.53,90.32a1,1,0,0,0-.22-.82,1.27,1.27,0,0,0-.83-.41,1.1,1.1,0,0,0-.82.17.84.84,0,0,0-.35.6.9.9,0,0,0,.26.73,2.18,2.18,0,0,0,.51.39l.36.22.28.15a1.24,1.24,0,0,0,.81-1m-.44,3.61a1.15,1.15,0,0,0-.56-1.16,8.33,8.33,0,0,0-.93-.56l-.14-.07a1.6,1.6,0,0,0-1,1.24A1.36,1.36,0,0,0,43.71,95a1.21,1.21,0,0,0,.92-.22,1.18,1.18,0,0,0,.45-.82m1.29-.4a2.22,2.22,0,0,1-.36,1,2.34,2.34,0,0,1-1.58,1,3.3,3.3,0,0,1-1,0,2.3,2.3,0,0,1-1.79-1.09,1.72,1.72,0,0,1,.53-2.16,4,4,0,0,1,.83-.34,1.73,1.73,0,0,1-.89-1.72,1.77,1.77,0,0,1,1.38-1.52,2.81,2.81,0,0,1,1.17-.08,2.37,2.37,0,0,1,1.43.62,1.29,1.29,0,0,1,.37,1.12,1.66,1.66,0,0,1-1.24,1.3,2.38,2.38,0,0,1,1,.86,1.68,1.68,0,0,1,.15,1.06"/><path class="cls-2" d="M56.45,90.71A2.49,2.49,0,0,0,56,89.4a.93.93,0,0,0-.87-.33.85.85,0,0,0-.76.73,2.3,2.3,0,0,0,0,.79,1.91,1.91,0,0,0,.47,1.13,1,1,0,0,0,.85.27.85.85,0,0,0,.79-.64,1.73,1.73,0,0,0,0-.66m1.49.31a3.91,3.91,0,0,1-1.47,3.86,4,4,0,0,1-2,.83L54,95.44l.11-.21a1.21,1.21,0,0,0,.41,0A2.19,2.19,0,0,0,56,94.46a2.43,2.43,0,0,0,.39-.68,4.61,4.61,0,0,0,.24-1.83,5.73,5.73,0,0,1-.81.81A2.44,2.44,0,0,1,55,93a1.56,1.56,0,0,1-1.25-.32,2,2,0,0,1-.69-1.34A2.34,2.34,0,0,1,53.91,89a2.5,2.5,0,0,1,1.26-.51,2.17,2.17,0,0,1,2.25.94A3.55,3.55,0,0,1,57.95,91"/><path class="cls-2" d="M68.61,90a1.16,1.16,0,0,0-1.08-.7,8.44,8.44,0,0,0-1.08,0h-.16a1.6,1.6,0,0,0-.18,1.55,1.35,1.35,0,0,0,1.85.74,1.21,1.21,0,0,0,.68-.67,1.18,1.18,0,0,0,0-.93m-1.49-3.31a1,1,0,0,0-.61-.59,1.25,1.25,0,0,0-.92.08,1.1,1.1,0,0,0-.61.57.83.83,0,0,0,0,.69.9.9,0,0,0,.6.49,2.31,2.31,0,0,0,.63.07H67a1.23,1.23,0,0,0,.16-1.3M69.51,89a2.2,2.2,0,0,1,.2,1,2.32,2.32,0,0,1-.85,1.64,3.22,3.22,0,0,1-.86.52,2.3,2.3,0,0,1-2.09,0A1.72,1.72,0,0,1,65.24,90a4.23,4.23,0,0,1,.53-.72,1.73,1.73,0,0,1-1.65-1,1.77,1.77,0,0,1,.39-2,2.74,2.74,0,0,1,1-.68,2.37,2.37,0,0,1,1.54-.2,1.28,1.28,0,0,1,.9.76,1.64,1.64,0,0,1-.38,1.75,2.35,2.35,0,0,1,1.29.23,1.69,1.69,0,0,1,.68.83"/><path class="cls-2" d="M31.06,94.28A48.33,48.33,0,1,1,49.8,98.06a48,48,0,0,1-18.74-3.78M30.41,4A50,50,0,1,0,49.8.12,49.64,49.64,0,0,0,30.41,4"/><path class="cls-2" d="M35.9,82.82a35.84,35.84,0,1,1,13.9,2.81,35.6,35.6,0,0,1-13.9-2.81M35.46,16a36.93,36.93,0,1,0,14.33-2.89A36.62,36.62,0,0,0,35.46,16"/><path class="cls-2" d="M8.42,64.26a1.68,1.68,0,0,0-.92.67,1.31,1.31,0,0,0,0,1.11l.14.36,2.69-1-.07-.18a1.68,1.68,0,0,0-.73-1,1.35,1.35,0,0,0-1.14,0m-.85-1.6a1.89,1.89,0,0,1,1-.13,1.8,1.8,0,0,1,.83.35,3,3,0,0,1,.69.75,5.79,5.79,0,0,1,.53,1.08l.19.5,1.72-.65a.62.62,0,0,0,.25-.16.46.46,0,0,0,.1-.3,1.84,1.84,0,0,0,0-.31c0-.14,0-.26-.07-.35l.34-.13,1.28,3.35-.34.13-.16-.32a1.31,1.31,0,0,0-.17-.27.45.45,0,0,0-.25-.16.62.62,0,0,0-.3.05L8.8,67.73a.65.65,0,0,0-.24.15.45.45,0,0,0-.1.3,1.81,1.81,0,0,0,0,.36c0,.15,0,.25.06.32L8.22,69,6.93,65.61a3.56,3.56,0,0,1-.3-1.92,1.38,1.38,0,0,1,.94-1"/><path class="cls-2" d="M5.82,52.36l0,.36a2.47,2.47,0,0,0-.7.54,1.24,1.24,0,0,0-.38.7,2.07,2.07,0,0,0,0,.38c0,.17,0,.3,0,.4l.11.94,2.52-.3-.08-.66a1.68,1.68,0,0,0-.11-.45A.86.86,0,0,0,7,53.93a1.19,1.19,0,0,0-.39-.17,2.55,2.55,0,0,0-.48-.08l0-.36L8.79,53l0,.36a2.35,2.35,0,0,0-.47.2,1.3,1.3,0,0,0-.38.26.77.77,0,0,0-.19.38,1.57,1.57,0,0,0,0,.48l.08.66,1.88-.22a2.09,2.09,0,0,0,.46-.1.48.48,0,0,0,.24-.19.64.64,0,0,0,.08-.33,4.09,4.09,0,0,0,0-.55c0-.11,0-.23-.05-.38a3.53,3.53,0,0,0-.07-.39,2.76,2.76,0,0,0-.11-.35.54.54,0,0,0-.16-.23,3.71,3.71,0,0,0-.74-.41,5.06,5.06,0,0,0-.73-.28l0-.33,2-.11.71,6.11-.36,0c0-.09,0-.2-.08-.35a1.57,1.57,0,0,0-.1-.31.46.46,0,0,0-.21-.21.58.58,0,0,0-.3,0l-4.6.54a.65.65,0,0,0-.26.08.46.46,0,0,0-.17.27,1.83,1.83,0,0,0-.06.35,3.27,3.27,0,0,0,0,.34l-.36,0-.67-5.78Z"/><path class="cls-2" d="M11.71,40.22l-.37,2.57q-1,.45-1.65.83L8,44.59l0,.24,2,.29a.61.61,0,0,0,.29,0,.48.48,0,0,0,.23-.21,1.45,1.45,0,0,0,.11-.23c0-.1.07-.21.1-.31l.36.05-.49,3.45-.36-.05c0-.08,0-.2,0-.35a1.2,1.2,0,0,0,0-.33.41.41,0,0,0-.15-.25.56.56,0,0,0-.28-.11L5.24,46.1a.64.64,0,0,0-.28,0,.48.48,0,0,0-.23.21,1.55,1.55,0,0,0-.15.33,3.22,3.22,0,0,0-.1.32l-.36,0,.51-3.57.36.05c0,.1,0,.21,0,.35a1.78,1.78,0,0,0,0,.35.36.36,0,0,0,.15.26.67.67,0,0,0,.28.1l2.19.31,0-.19L7,43.64q-.39-.54-.65-.84a7.69,7.69,0,0,0-.57-.63.72.72,0,0,0-.39-.23c-.05,0-.1,0-.14.15a2.8,2.8,0,0,0-.13.5l-.36,0,.4-2.82.36.05a3.49,3.49,0,0,0,.06.88,2.21,2.21,0,0,0,.34.75c.24.36.46.67.64.91l.71.93,1.46-.87q.87-.5,1.69-1a2.66,2.66,0,0,0,.41-.3,1.78,1.78,0,0,0,.34-.4,1.15,1.15,0,0,0,.11-.25,1.25,1.25,0,0,0,.07-.25Z"/><path class="cls-2" d="M14.19,33.7l-1.35,3.38L12.5,37l.11-.35a1.34,1.34,0,0,0,.07-.33A.44.44,0,0,0,12.6,36a.61.61,0,0,0-.24-.17L8,34.09A.65.65,0,0,0,7.75,34a.45.45,0,0,0-.27.15,2.19,2.19,0,0,0-.21.27,3.73,3.73,0,0,0-.2.32l-.34-.14,1.36-3.38.33.14c0,.09-.06.2-.09.34a1.64,1.64,0,0,0-.06.35.38.38,0,0,0,.08.29.68.68,0,0,0,.25.16l4.32,1.73a.61.61,0,0,0,.29,0,.45.45,0,0,0,.27-.15,1.68,1.68,0,0,0,.19-.27,3.2,3.2,0,0,0,.19-.33Z"/><path class="cls-2" d="M15.25,20.38l-.17.33a1,1,0,0,0-.11.46.71.71,0,0,0,.21.45,4.23,4.23,0,0,0,.68.58l3.82,2.74-.48.67L12.69,26l2.5,1.8a3.52,3.52,0,0,0,.75.44.78.78,0,0,0,.5.05,1.08,1.08,0,0,0,.38-.22,4.42,4.42,0,0,0,.34-.29l.29.21-1.65,2.29L15.52,30a2.57,2.57,0,0,0,.19-.37,1.08,1.08,0,0,0,.09-.41.69.69,0,0,0-.19-.44,4.31,4.31,0,0,0-.7-.59l-2.53-1.82a1.21,1.21,0,0,0-.4-.19.87.87,0,0,0-.42,0,1.28,1.28,0,0,0-.42.16,2.55,2.55,0,0,0-.39.31l-.29-.21,1.44-2,5.71-.3-2-1.46a3.61,3.61,0,0,0-.77-.45.81.81,0,0,0-.5-.05,1.2,1.2,0,0,0-.38.21l-.33.29-.29-.21L15,20.17Z"/><path class="cls-2" d="M26.62,15l-.18.18a1.81,1.81,0,0,0-.17.23.38.38,0,0,0-.07.31.69.69,0,0,0,.14.26l.48.6.24.29.23.27a5.63,5.63,0,0,1-.74,1.26,6.33,6.33,0,0,1-1.14,1.23,4.11,4.11,0,0,1-1.18.67,3.17,3.17,0,0,1-1.26.18,3,3,0,0,1-1.25-.37,3.71,3.71,0,0,1-1.12-1,3.82,3.82,0,0,1-.69-1.26,3.14,3.14,0,0,1-.13-1.34,3.19,3.19,0,0,1,.44-1.28,4.21,4.21,0,0,1,1-1.14,3.73,3.73,0,0,1,.89-.54,4.29,4.29,0,0,1,.8-.26l.06-.38.32-.25,1.54,1.84-.32.25A4.31,4.31,0,0,0,22.85,14a1.64,1.64,0,0,0-1.29.37A1.54,1.54,0,0,0,21,15.87a4,4,0,0,0,1,2,4.51,4.51,0,0,0,1.79,1.47,1.47,1.47,0,0,0,1.55-.2,2.06,2.06,0,0,0,.49-.55A1.61,1.61,0,0,0,26,18l-.83-1a.58.58,0,0,0-.22-.18.52.52,0,0,0-.31,0,1.58,1.58,0,0,0-.34.14l-.31.17-.23-.28,2.66-2.14Z"/><path class="cls-2" d="M41.91,5.15l-.36.16a1.13,1.13,0,0,0-.37.27.66.66,0,0,0-.13.47,4.07,4.07,0,0,0,.16.89l.63,2.35a2.21,2.21,0,0,1-.26,1.86,2.78,2.78,0,0,1-1.7,1.13,3.33,3.33,0,0,1-2.26-.05,2.15,2.15,0,0,1-1.2-1.5L35.55,7.5a.56.56,0,0,0-.13-.25.52.52,0,0,0-.28-.14,1.22,1.22,0,0,0-.31,0l-.29,0-.09-.35,3.33-.89.09.35-.28.11-.28.15a.37.37,0,0,0-.18.24.67.67,0,0,0,0,.3l.85,3.2a2,2,0,0,0,.78,1.26,1.94,1.94,0,0,0,2.43-.69,2,2,0,0,0,.07-1.51l-.57-2.15a3.58,3.58,0,0,0-.31-.83A.77.77,0,0,0,40,6a1.28,1.28,0,0,0-.45-.07h-.43l-.1-.36,2.77-.74Z"/><path class="cls-2" d="M54.31,4.68l-.37,0a1,1,0,0,0-.43.18.72.72,0,0,0-.25.42,4.28,4.28,0,0,0-.08.89l-.07,4.7h-.82l-4-5.14,0,3.08a3.69,3.69,0,0,0,.06.87.81.81,0,0,0,.24.44,1.28,1.28,0,0,0,.4.18l.43.11v.36l-2.82,0v-.36a2.87,2.87,0,0,0,.41-.06,1.11,1.11,0,0,0,.39-.16.69.69,0,0,0,.25-.4,4.18,4.18,0,0,0,.08-.91l0-3.11a1.37,1.37,0,0,0-.06-.44A.92.92,0,0,0,47.45,5a1.25,1.25,0,0,0-.37-.25,2.35,2.35,0,0,0-.48-.15V4.22l2.47,0,3.52,4.51,0-2.5a3.59,3.59,0,0,0-.07-.89.82.82,0,0,0-.24-.43,1.15,1.15,0,0,0-.39-.19l-.42-.11V4.29l2.81,0Z"/><path class="cls-2" d="M61.39,12.54l-3.53-.91.09-.35.36.06a1.14,1.14,0,0,0,.34,0,.41.41,0,0,0,.27-.12.58.58,0,0,0,.13-.26l1.16-4.51a.62.62,0,0,0,0-.28A.42.42,0,0,0,60,6a1.74,1.74,0,0,0-.29-.18l-.35-.16.09-.35L63,6.18l-.09.35-.35,0-.36,0a.39.39,0,0,0-.28.12.67.67,0,0,0-.13.26l-1.16,4.5a.64.64,0,0,0,0,.29.46.46,0,0,0,.18.24,1.56,1.56,0,0,0,.29.16l.35.14Z"/><path class="cls-2" d="M74.31,11.66,74,11.57a1.29,1.29,0,0,0-.31,0,1,1,0,0,0-.39.07,1.61,1.61,0,0,0-.36.22l-.79.63-1.18,1L69.72,14.5l-1.33,1.11-.82-.44q.17-1.7.34-3.46c.12-1.17.19-2,.23-2.45a1.53,1.53,0,0,0,0-.4A1.17,1.17,0,0,0,68,8.49a1.67,1.67,0,0,0-.19-.24l-.25-.2.17-.32L70.83,9.4l-.17.31A3.6,3.6,0,0,0,70,9.49c-.13,0-.21,0-.24.06a.29.29,0,0,0,0,.11s0,.09,0,.16q-.06.43-.15,1.44t-.3,3.05l1.62-1.37,1.15-1c.16-.14.31-.27.43-.4a1.56,1.56,0,0,0,.25-.31c0-.09,0-.19-.08-.32a2.69,2.69,0,0,0-.64-.51l.17-.33,2.35,1.25Z"/><path class="cls-2" d="M81.46,19.29,81.19,19a2.41,2.41,0,0,0,.18-.87,1.25,1.25,0,0,0-.17-.77,2.32,2.32,0,0,0-.26-.29l-.3-.28-.7-.64-1.71,1.87.49.45a1.43,1.43,0,0,0,.38.26.84.84,0,0,0,.43.08,1.19,1.19,0,0,0,.41-.13,2.11,2.11,0,0,0,.42-.25l.27.24-1.85,2-.27-.24a2.31,2.31,0,0,0,.23-.45,1.36,1.36,0,0,0,.12-.44.78.78,0,0,0-.11-.41,1.66,1.66,0,0,0-.31-.37L78,18.38l-1.28,1.4a1.78,1.78,0,0,0-.29.38.47.47,0,0,0-.06.31.66.66,0,0,0,.16.3,4.15,4.15,0,0,0,.38.39l.29.26.31.24a2.57,2.57,0,0,0,.31.2.55.55,0,0,0,.27.07,3.73,3.73,0,0,0,.83-.18,4.39,4.39,0,0,0,.74-.27l.25.22-1.47,1.42L73.87,19l.24-.27.29.21a1.43,1.43,0,0,0,.28.17.42.42,0,0,0,.3,0,.59.59,0,0,0,.24-.17l3.12-3.42a.56.56,0,0,0,.15-.24.47.47,0,0,0,0-.31,1.51,1.51,0,0,0-.18-.31l-.21-.27.25-.26L82.59,18Z"/><path class="cls-2" d="M87.27,26.89a1.17,1.17,0,0,0,.61-.83,1.61,1.61,0,0,0-.31-1l-.2-.31L85.05,26.2l.19.29a1.46,1.46,0,0,0,.87.69,1.5,1.5,0,0,0,1.15-.3m-2.4,5.29L83.5,30.06c.33-.72.57-1.31.75-1.77s.36-1,.57-1.64l-.13-.2L83,27.52a.6.6,0,0,0-.2.21.47.47,0,0,0,0,.31,1.94,1.94,0,0,0,.09.27,2.85,2.85,0,0,0,.13.3l-.31.2-1.9-3,.3-.19.23.28a1.33,1.33,0,0,0,.22.23.45.45,0,0,0,.29.1.67.67,0,0,0,.28-.11L86,23.64a.64.64,0,0,0,.21-.19.46.46,0,0,0,0-.31,2,2,0,0,0-.11-.35l-.12-.3.3-.2,2,3.1A3.7,3.7,0,0,1,89,27.17a1.28,1.28,0,0,1-.64,1.17,1.57,1.57,0,0,1-1.15.27A2.67,2.67,0,0,1,86,28l-.39,1.12c-.15.43-.3.87-.44,1.33A5.69,5.69,0,0,0,85,31a1.09,1.09,0,0,0,0,.54,1.66,1.66,0,0,0,.1.26l.1.21Z"/><path class="cls-2" d="M86.7,37.57a4.19,4.19,0,0,1-.22-1.12,4,4,0,0,1,.05-.95l-.41-.2L86,34.94l2.23-.81.13.38a5.47,5.47,0,0,0-.56.55,3.56,3.56,0,0,0-.48.67,2.43,2.43,0,0,0-.27.76,1.66,1.66,0,0,0,.07.84,1.39,1.39,0,0,0,.6.82,1,1,0,0,0,.83.07.83.83,0,0,0,.52-.48,2.33,2.33,0,0,0,.15-1c0-.27,0-.52,0-.75s0-.45,0-.65a2,2,0,0,1,.4-1.17,1.94,1.94,0,0,1,.94-.65,1.72,1.72,0,0,1,.75-.07,2,2,0,0,1,.76.26,2.36,2.36,0,0,1,.65.6,3.1,3.1,0,0,1,.49.93,3.38,3.38,0,0,1,.18,1,4.17,4.17,0,0,1,0,.81l.35.18.13.38-2.11.75L91.59,38c.2-.16.4-.34.59-.54a3.18,3.18,0,0,0,.46-.57,1.79,1.79,0,0,0,.24-.63,1.47,1.47,0,0,0-.07-.71,1.2,1.2,0,0,0-.52-.69.9.9,0,0,0-.76-.08.83.83,0,0,0-.52.47,2.38,2.38,0,0,0-.14,1c0,.24,0,.49,0,.74s0,.48,0,.67a2.28,2.28,0,0,1-.35,1.19,1.79,1.79,0,0,1-1,.69,1.82,1.82,0,0,1-.84.07,1.9,1.9,0,0,1-.8-.3,2.67,2.67,0,0,1-.7-.67,3.7,3.7,0,0,1-.51-1"/><path class="cls-2" d="M88.85,47.67,88.48,44l.36,0,.06.36a1.17,1.17,0,0,0,.09.33.45.45,0,0,0,.21.22.6.6,0,0,0,.29,0l4.63-.48a.64.64,0,0,0,.27-.09.47.47,0,0,0,.17-.25,2.44,2.44,0,0,0,.06-.34,3.71,3.71,0,0,0,0-.38l.36,0L95.38,47,95,47,95,46.69a2.12,2.12,0,0,0-.11-.34.37.37,0,0,0-.21-.22.67.67,0,0,0-.29,0l-4.63.48a.6.6,0,0,0-.27.09.44.44,0,0,0-.17.25,1.63,1.63,0,0,0,0,.33,2.82,2.82,0,0,0,0,.38Z"/><path class="cls-2" d="M92.88,58.28l0-.36a3.91,3.91,0,0,0,.95-.35q.51-.26.58-.52c0-.1,0-.22.07-.36s0-.26.06-.37l0-.21L89.5,55.5a.69.69,0,0,0-.3,0,.42.42,0,0,0-.23.21,2.18,2.18,0,0,0-.12.32c0,.15-.08.27-.11.37l-.36,0,.43-3.65.36,0c0,.09,0,.22,0,.38a1.63,1.63,0,0,0,0,.34.45.45,0,0,0,.17.26.71.71,0,0,0,.29.09l5.15.61,0-.21c0-.11,0-.23,0-.37s0-.27,0-.37-.15-.39-.44-.64a3.89,3.89,0,0,0-.84-.56l0-.36,1.87.22-.75,6.32Z"/><path class="cls-2" d="M90.74,69.64a1.65,1.65,0,0,0,.05-.31,1.14,1.14,0,0,0,0-.29,1.37,1.37,0,0,0-.14-.43c-.07-.14-.16-.28-.25-.42l-.67-.93-.8-1.07a2.38,2.38,0,0,0-.45-.51,3,3,0,0,0-.66-.31L86.94,65a.6.6,0,0,0-.29,0,.46.46,0,0,0-.28.15,3.1,3.1,0,0,0-.2.28c-.09.15-.16.26-.19.33l-.34-.13,1.32-3.43.34.13c0,.08-.06.2-.1.36a1.67,1.67,0,0,0-.06.34.48.48,0,0,0,.1.29.68.68,0,0,0,.26.16l1.08.41.25.09L89,64l.25,0,.4-.06L91,63.72l1.21-.21a2.19,2.19,0,0,0,.5-.15,1.65,1.65,0,0,0,.35-.21,1,1,0,0,0,.21-.24,2.17,2.17,0,0,0,.16-.28l.34.13-1.34,3.51-.34-.13a2.94,2.94,0,0,0,.18-.68c0-.13,0-.2-.08-.23a.69.69,0,0,0-.22,0l-.53.05-.94.13-1.42.24c.66.88,1.12,1.49,1.39,1.82A2.46,2.46,0,0,0,91,68a.27.27,0,0,0,.3-.09,1.93,1.93,0,0,0,.32-.54l.34.13-.87,2.27Z"/><path class="cls-2" d="M70.85,67.13a47.82,47.82,0,0,0-3.8-7.18,32.6,32.6,0,0,0-4.76-5.83,21.28,21.28,0,0,0-5.77-4,16.38,16.38,0,0,0-4-1.27V47.26a2.68,2.68,0,1,0-5.35,0v1.57a16.39,16.39,0,0,0-4.05,1.27,21.3,21.3,0,0,0-5.77,4,32.52,32.52,0,0,0-4.76,5.83,47.82,47.82,0,0,0-3.8,7.18,2.59,2.59,0,1,0,4.75,2,34.49,34.49,0,0,1,7.37-11.31,14.54,14.54,0,0,1,6.25-3.74v4.21a2.61,2.61,0,0,1-1.55,2.31l-.66.4a13.44,13.44,0,0,0-3.2,3,23.94,23.94,0,0,0-4.22,9.47,2.59,2.59,0,0,0,5.05,1.1,18.72,18.72,0,0,1,3.24-7.39c.74-1,2.26-2.56,4-2.56s3.27,1.6,4,2.56A18.72,18.72,0,0,1,57,74.62a2.59,2.59,0,0,0,5.06-1.1,23.94,23.94,0,0,0-4.22-9.47,13.51,13.51,0,0,0-3.2-3l-.66-.4a2.6,2.6,0,0,1-1.55-2.31V54.12a14.54,14.54,0,0,1,6.25,3.74,34.49,34.49,0,0,1,7.37,11.31,2.59,2.59,0,1,0,4.75-2M52.09,24.2V40.93a2.59,2.59,0,0,0,2,2.45A24.16,24.16,0,0,1,64,48.5a44.45,44.45,0,0,1,8.78,10.13,2.59,2.59,0,1,0,4.34-2.82,49.52,49.52,0,0,0-9.82-11.3,30.23,30.23,0,0,0-9.81-5.56V33a38.1,38.1,0,0,1,14.26,7.82,2.59,2.59,0,0,0,3.37-3.93,46.51,46.51,0,0,0-9.17-6.12,37.32,37.32,0,0,0-8.46-3.11V24.2a2.68,2.68,0,0,0-5.35,0m-7.27-2.67a2.68,2.68,0,0,0-2.68,2.67v3.47a37.32,37.32,0,0,0-8.46,3.11,46.45,46.45,0,0,0-9.17,6.12,2.59,2.59,0,0,0,3.37,3.93A38.09,38.09,0,0,1,42.15,33v5.95a30.21,30.21,0,0,0-9.82,5.56,49.61,49.61,0,0,0-9.82,11.3,2.59,2.59,0,1,0,4.34,2.82A44.49,44.49,0,0,1,35.63,48.5a24.17,24.17,0,0,1,9.86-5.11,2.59,2.59,0,0,0,2-2.45V24.2a2.67,2.67,0,0,0-2.67-2.67M83.67,49.91A33.87,33.87,0,1,1,49.8,16,33.87,33.87,0,0,1,83.67,49.91"/><path class="cls-3" d="M151.09,25l-18.58,49.8h18.58L169.67,25Zm3.1,49.8h30.87l5.42-14.53h-30.9Zm42.53-35.28L191.33,25H172.69l-5.39,14.53ZM160.79,57.18h21.65l5.42-14.53H166.17Zm45.66-14.53-12,32.16h15.46l11.93-32.16Zm42.32,2.66a13.15,13.15,0,0,0-.86-11,17.43,17.43,0,0,0-6.46-6.65C238.21,25.76,234.37,25,229.9,25H200.64l5.42,14.53h22.56c3.3,0,5.73,3,4.79,5.48l-3.7,9.91c-1.09,2.94-4.47,4.95-8.3,4.95h-2.84L213,74.81h8.46a26.82,26.82,0,0,0,7-.91,24.17,24.17,0,0,0,6.09-2.55,20.12,20.12,0,0,0,4.8-3.94,16.3,16.3,0,0,0,3.08-5.07l6.2-16.59ZM287.33,25H268.81L279,52.4h-5L269.1,65.48h14.75l3.47,9.34h18.58Zm-21.72,0H250.16a11.14,11.14,0,0,1,4.33,2.63,14,14,0,0,1,3.6,6.66,21.43,21.43,0,0,1,.61,4.7,21.66,21.66,0,0,1-1.19,7.79c-1.69,4.54-3.86,10.39-5.8,15.56A42.81,42.81,0,0,1,249.15,68a23.75,23.75,0,0,1-2.45,3.66,11.17,11.17,0,0,1-3.79,3.11h19.63l10.88-29.08Z"/><path class="cls-4" d="M334.9,26h5.34V58.58H334.9V51.69c-2.46,1.06-4.88,2.08-7,3l-2.25-5.33c2.32-.64,5.79-1.77,9.27-3V38.62H327V33.49h7.93Zm18.36,27.38c1.19,0,1.4-1.41,1.65-7a15,15,0,0,0,4.88,2.3c-.46,7-1.72,9.79-6,9.79h-4.18c-4.46,0-5.76-1.73-5.76-7.42V26h5.34V36c2.32-1.55,4.56-3.32,6.35-4.8l3.65,4.66c-3.16,2-6.67,4-10,5.65v9.57c0,2,.14,2.3,1.26,2.3Z"/><path class="cls-4" d="M372.1,50.24a53.19,53.19,0,0,1-6.95,8.16,36,36,0,0,0-3.72-3.29,29.62,29.62,0,0,0,5.69-6.71Zm21.34-21v5.05H362.13V29.22h13.2c-.39-.88-.81-1.77-1.16-2.54L379.23,25c.7,1.27,1.61,2.93,2.18,4.17Zm-12.71,17.7v7c0,2.47-.46,3.78-2.25,4.52s-3.9.74-6.6.74a19.15,19.15,0,0,0-1.58-5c1.44.07,3.65.07,4.21.07s.77-.11.77-.53V46.92H366V35.36H389.9V46.92ZM371,42.54h13.41V39.75H371Zm16.43,5.72a61.28,61.28,0,0,1,6,7.14l-4.53,3a52.64,52.64,0,0,0-5.65-7.53Z"/><path class="cls-4" d="M416.75,39.92C419,46.32,423.1,51.48,429.56,54a22.15,22.15,0,0,0-3.79,4.88C419.59,56,415.73,51.3,413,45a24.36,24.36,0,0,1-12.64,13.81,16,16,0,0,0-3.86-4.38c7.69-3.5,10.92-8.8,12.32-14.56H397.23V34.59h12.46c.25-3.11.21-6.22.25-9.15h5.62c0,2.93-.07,6-.35,9.15h13.48v5.33Z"/><path class="cls-4" d="M463.89,50.17H450.55v3.29c0,2.51-.6,3.82-2.46,4.52s-4.21.81-7.09.81a20.15,20.15,0,0,0-2-4.95c2,.11,4.74.11,5.44.07s.91-.14.91-.6V50.17H432.26v-4.7h13.06v-2A22.74,22.74,0,0,0,448.09,42h-9.34V37.59h15.13l1.05-.25,3.23,2.58a37,37,0,0,1-7.62,5.33v.21h13.34ZM437.32,39.11h-4.77v-8.2h5.16a28.33,28.33,0,0,0-2.14-3.22l4.35-1.94A19.43,19.43,0,0,1,443,30.28l-1.37.64h4.95a25.27,25.27,0,0,0-2.07-4.13l4.53-1.7a20.39,20.39,0,0,1,2.7,4.95l-2.28.88h4a32.58,32.58,0,0,0,2.74-5.23l5.33,1.55c-.88,1.27-1.79,2.54-2.67,3.67h4.74v8.2h-5V35.4H437.32Z"/><path class="cls-4" d="M468.77,29.36H486V34.8H475.31v5.08h9.1V45.4h-9.1v5.81h11.11v5.52H468.77Z"/><path class="cls-4" d="M490.21,29.36H498c8.29,0,13.78,4,13.78,13.54s-5.48,13.83-13.41,13.83h-8.19Zm7.42,22.07c4.39,0,7.49-2,7.49-8.53s-3.11-8.31-7.49-8.31h-.88V51.43Z"/><path class="cls-4" d="M528.52,50.43h-8l-1.57,6.29h-6.65l8.44-27.37h7.82L537,56.72h-6.87Zm-1.24-5.08L526.69,43c-.73-2.72-1.43-6-2.16-8.79h-.15c-.66,2.87-1.39,6.07-2.08,8.79l-.58,2.32Z"/><path class="cls-4" d="M545.91,31.58a64.45,64.45,0,0,1-1.68,6.32h6.32V54.8H544V57.3H539.8V47.13a17.51,17.51,0,0,1-1.19,1.52A31.63,31.63,0,0,0,537,42.4c2-2.69,3.33-6.61,4.18-10.81H537.8V27h13.06v4.63Zm.32,10.81H544v7.91h2.25Zm24.43,2.19h-3.51V59H562.3V44.59h-3.05c-.28,5.19-1.33,11-4.81,14.73a21.34,21.34,0,0,0-3.83-3c2.7-3,3.58-7.67,3.86-11.76h-2.95V39.75h3.05V31.87H552.4V27.1H570v4.77h-2.81v7.88h3.51Zm-8.35-4.84V31.87h-2.95v7.88Z"/><path class="cls-4" d="M600.35,53.56c.67,0,.81-.67.91-4.95a14.41,14.41,0,0,0,4.67,2.12c-.46,6-1.72,7.7-5.05,7.7h-2.81c-3.79,0-5-1.45-5-6.25V47.06H589c-.6,4.63-3.37,9.36-12.88,11.8a23.8,23.8,0,0,0-3.54-4.31c7.55-1.87,10.18-4.66,11-7.49h-7.69V42.32h8v-3h5.26v3h9.2v9.79c0,1.27.07,1.45.7,1.45ZM578.66,36.35h-5.12v-7.6h12.74c-.28-.85-.6-1.7-.88-2.44L590.91,25a38.35,38.35,0,0,1,1.58,3.75h12.18v7.14h-5.41V33.17h-20.6Zm-4.42,1.77a37.54,37.54,0,0,0,10.21-4.73l4,2.4a41.5,41.5,0,0,1-11,6Zm19.31-4.84a63.19,63.19,0,0,1,10.21,5.51L600,41.87a56.19,56.19,0,0,0-9.9-5.87Z"/><path class="cls-4" d="M620.25,29.46c-.77,2.83-1.72,5.94-2.53,8.34A12,12,0,0,1,620,45c0,2.51-.49,4.06-1.68,5a4.67,4.67,0,0,1-2.11.85,14.29,14.29,0,0,1-2.25.11,10.9,10.9,0,0,0-.7-3.6V58.86H608.8V26.78h7.69l.7-.18,3.33,1.87-.28,1H628a31,31,0,0,0-1.23-3.07L631.69,25a26.35,26.35,0,0,1,1.86,4.42h6.88v7.42h-2.74v3.6H623v-3.6h-2.74Zm-7,17.14a7.26,7.26,0,0,0,.88,0,1.5,1.5,0,0,0,.88-.25,2.56,2.56,0,0,0,.53-1.94,9.88,9.88,0,0,0-2-6.08c.53-2,1.16-4.73,1.61-7h-1.86Zm23.13,7.6c.42,0,.56-.57.63-4A12.59,12.59,0,0,0,641.13,52c-.39,5.05-1.54,6.47-4.25,6.47h-2c-3.51,0-4.25-1.41-4.25-5.48V46.88H629c-.53,5.69-2.14,9.75-9,12.15a13.73,13.73,0,0,0-2.84-4.17c5.34-1.59,6.53-4.13,6.91-8h-3.83V42.32h20.25v4.56h-5.16V53c0,1.1,0,1.24.39,1.24ZM624.92,33.81v2.26h10.64V33.81Z"/><path class="cls-4" d="M327.9,67.25h1.63v7.57H327.9Z"/><path class="cls-4" d="M330.86,67.25h1.66l1.69,3.62.67,1.68h0a26.52,26.52,0,0,1-.22-2.8v-2.5h1.55v7.57H334.6l-1.68-3.65-.67-1.66h0c.07.84.21,1.88.21,2.8v2.51h-1.55Z"/><path class="cls-4" d="M337.18,73.87l.92-1.25a2.61,2.61,0,0,0,1.65.77c.6,0,.89-.25.89-.66s-.37-.58-1-.85l-.87-.41a2.2,2.2,0,0,1-1.38-2.07,2.33,2.33,0,0,1,2.47-2.29,3,3,0,0,1,2.21,1l-.81,1.14a2.08,2.08,0,0,0-1.4-.58c-.5,0-.81.22-.81.63s.43.58,1,.84l.85.38a2.08,2.08,0,0,1,1.34,2.07A2.39,2.39,0,0,1,339.72,75,3.59,3.59,0,0,1,337.18,73.87Z"/><path class="cls-4" d="M344.53,68.75H342.7V67.25H348v1.51h-1.84v6.06h-1.63Z"/><path class="cls-4" d="M348.83,67.25h1.63v7.57h-1.63Z"/><path class="cls-4" d="M353.12,68.75h-1.84V67.25h5.31v1.51h-1.84v6.06h-1.63Z"/><path class="cls-4" d="M357.38,71.25v-4H359v4.2c0,1.43.38,1.94,1.13,1.94s1.15-.51,1.15-1.94v-4.2h1.57v4c0,2.55-.91,3.7-2.72,3.7S357.38,73.81,357.38,71.25Z"/><path class="cls-4" d="M365.47,68.75h-1.84V67.25h5.31v1.51H367.1v6.06h-1.63Z"/><path class="cls-4" d="M369.77,67.25h4.31v1.51H371.4v1.4h2.27v1.53H371.4v1.61h2.78v1.53h-4.41Z"/><path class="cls-4" d="M376.85,71c0-2.48,1.26-3.89,3.11-3.89s3.11,1.41,3.11,3.89-1.26,4-3.11,4S376.85,73.47,376.85,71Zm4.56,0c0-1.46-.56-2.33-1.45-2.33s-1.44.86-1.44,2.33.55,2.4,1.44,2.4S381.41,72.47,381.41,71Z"/><path class="cls-4" d="M384.1,67.25h4.34v1.51h-2.7v1.66h2.32v1.52h-2.32v2.89H384.1Z"/><path class="cls-4" d="M391.25,67.25h4.31v1.51h-2.68v1.4h2.27v1.53h-2.27v1.61h2.78v1.53h-4.41Z"/><path class="cls-4" d="M396.78,67.25h1.63v6h2.64v1.53h-4.27Z"/><path class="cls-4" d="M402,67.25h4.31v1.51h-2.68v1.4h2.27v1.53h-2.27v1.61h2.78v1.53H402Z"/><path class="cls-4" d="M407.21,71.07c0-2.52,1.52-4,3.24-4a2.77,2.77,0,0,1,2.06,1l-.86,1.16a1.61,1.61,0,0,0-1.18-.59c-.88,0-1.6.87-1.6,2.35s.62,2.38,1.58,2.38a1.7,1.7,0,0,0,1.3-.69l.86,1.14A2.71,2.71,0,0,1,410.4,75C408.67,75,407.21,73.63,407.21,71.07Z"/><path class="cls-4" d="M414.7,68.75h-1.84V67.25h5.31v1.51h-1.84v6.06H414.7Z"/><path class="cls-4" d="M422.67,74.81l-1.25-2.66h-.79v2.66H419V67.25h2.49c1.45,0,2.66.55,2.66,2.38A2.28,2.28,0,0,1,423,71.81l1.52,3Zm-2-4.1h.73c.78,0,1.19-.38,1.19-1.09s-.41-.95-1.19-.95h-.73Z"/><path class="cls-4" d="M424.93,71c0-2.48,1.26-3.89,3.11-3.89s3.11,1.41,3.11,3.89-1.26,4-3.11,4S424.93,73.47,424.93,71Zm4.56,0c0-1.46-.56-2.33-1.45-2.33s-1.44.86-1.44,2.33.55,2.4,1.44,2.4S429.49,72.47,429.49,71Z"/><path class="cls-4" d="M432.19,67.25h1.66l1.69,3.62.67,1.68h0a26.52,26.52,0,0,1-.22-2.8v-2.5h1.55v7.57h-1.66l-1.68-3.65-.67-1.66h0c.07.84.21,1.88.21,2.8v2.51h-1.55Z"/><path class="cls-4" d="M438.93,67.25h1.63v7.57h-1.63Z"/><path class="cls-4" d="M441.59,71.07c0-2.52,1.52-4,3.24-4a2.77,2.77,0,0,1,2.06,1L446,69.25a1.61,1.61,0,0,0-1.18-.59c-.88,0-1.6.87-1.6,2.35s.62,2.38,1.58,2.38a1.7,1.7,0,0,0,1.3-.69l.86,1.14A2.71,2.71,0,0,1,444.78,75C443.05,75,441.59,73.63,441.59,71.07Z"/><path class="cls-4" d="M449.62,67.25h2c2.07,0,3.44,1.11,3.44,3.74s-1.37,3.82-3.35,3.82h-2Zm1.85,6.1c1.1,0,1.87-.56,1.87-2.36s-.78-2.3-1.87-2.3h-.22v4.66Z"/><path class="cls-4" d="M456.05,67.25h4.31v1.51h-2.68v1.4H460v1.53h-2.27v1.61h2.78v1.53h-4.41Z"/><path class="cls-4" d="M461.15,73.87l.92-1.25a2.61,2.61,0,0,0,1.65.77c.6,0,.89-.25.89-.66s-.37-.58-1-.85l-.87-.41a2.2,2.2,0,0,1-1.38-2.07,2.33,2.33,0,0,1,2.47-2.29,3,3,0,0,1,2.21,1l-.81,1.14a2.08,2.08,0,0,0-1.4-.58c-.5,0-.81.22-.81.63s.43.58,1,.84l.85.38a2.08,2.08,0,0,1,1.34,2.07A2.39,2.39,0,0,1,463.69,75,3.59,3.59,0,0,1,461.15,73.87Z"/><path class="cls-4" d="M467.18,67.25h1.63v7.57h-1.63Z"/><path class="cls-4" d="M469.84,71.07c0-2.52,1.52-4,3.34-4a2.86,2.86,0,0,1,2.17,1l-.87,1.16a1.65,1.65,0,0,0-1.25-.59c-1,0-1.73.87-1.73,2.35s.6,2.38,1.86,2.38a1.07,1.07,0,0,0,.65-.19V72h-1.08V70.49h2.53V74a3.17,3.17,0,0,1-2.26.93C471.32,75,469.84,73.63,469.84,71.07Z"/><path class="cls-4" d="M476.61,67.25h1.66L480,70.87l.67,1.68h0a26.52,26.52,0,0,1-.22-2.8v-2.5H482v7.57h-1.66l-1.68-3.65L478,69.51h0c.07.84.21,1.88.21,2.8v2.51h-1.55Z"/><path class="cls-4" d="M488.43,73.08h-2L486,74.81h-1.66l2.11-7.57h2l2.11,7.57h-1.72Zm-.31-1.4L488,71c-.18-.75-.36-1.66-.54-2.43h0c-.16.79-.35,1.68-.52,2.43l-.15.64Z"/><path class="cls-4" d="M491,71.25v-4h1.62v4.2c0,1.43.38,1.94,1.13,1.94s1.15-.51,1.15-1.94v-4.2h1.57v4c0,2.55-.91,3.7-2.72,3.7S491,73.81,491,71.25Z"/><path class="cls-4" d="M499.07,68.75h-1.84V67.25h5.31v1.51h-1.84v6.06h-1.63Z"/><path class="cls-4" d="M503.07,71c0-2.48,1.26-3.89,3.11-3.89s3.11,1.41,3.11,3.89-1.26,4-3.11,4S503.07,73.47,503.07,71Zm4.56,0c0-1.46-.56-2.33-1.45-2.33s-1.44.86-1.44,2.33.55,2.4,1.44,2.4S507.63,72.47,507.63,71Z"/><path class="cls-4" d="M510.32,67.25h1.76l1.08,3.26c.14.44.25.92.37,1.38h0c.14-.47.25-.95.37-1.38l1-3.26h1.77v7.57h-1.49V72.22c0-.75.13-1.88.21-2.62h0l-.57,1.81L514,74.17h-.89l-.92-2.77-.55-1.81h0c.08.74.21,1.87.21,2.62v2.59h-1.46Z"/><path class="cls-4" d="M521.31,73.08h-2l-.39,1.74h-1.66l2.11-7.57h2l2.11,7.57H521.7Zm-.31-1.4-.15-.64c-.18-.75-.36-1.66-.54-2.43h0c-.16.79-.35,1.68-.52,2.43l-.15.64Z"/><path class="cls-4" d="M525.22,68.75h-1.84V67.25h5.31v1.51h-1.84v6.06h-1.63Z"/><path class="cls-4" d="M529.52,67.25h1.63v7.57h-1.63Z"/><path class="cls-4" d="M532.17,71c0-2.48,1.26-3.89,3.11-3.89s3.11,1.41,3.11,3.89-1.26,4-3.11,4S532.17,73.47,532.17,71Zm4.56,0c0-1.46-.56-2.33-1.45-2.33s-1.44.86-1.44,2.33.55,2.4,1.44,2.4S536.74,72.47,536.74,71Z"/><path class="cls-4" d="M539.43,67.25h1.66l1.69,3.62.67,1.68h0a26.52,26.52,0,0,1-.22-2.8v-2.5h1.55v7.57h-1.66l-1.68-3.65-.67-1.66h0c.07.84.21,1.88.21,2.8v2.51h-1.55Z"/><path class="cls-4" d="M547.29,74.72v.81a1.83,1.83,0,0,1-.36,1.16,2.1,2.1,0,0,1-1.06.69l-.24-.38a2.29,2.29,0,0,0,.41-1.47v-.81Z"/><path class="cls-4" d="M551,67.25h2.38c1.5,0,2.73.59,2.73,2.46a2.45,2.45,0,0,1-2.68,2.59h-.79v2.51H551Zm2.35,3.62a1,1,0,0,0,1.18-1.16c0-.76-.44-1-1.22-1h-.67v2.19Z"/><path class="cls-4" d="M557.06,67.25h4.31v1.51H558.7v1.4H561v1.53H558.7v1.61h2.78v1.53h-4.41Z"/><path class="cls-4" d="M562.59,67.25h1.63v3h0l1.93-3H568l-2.05,3,2.44,4.54h-1.79l-1.6-3.1-.74,1.12v2h-1.63Z"/><path class="cls-4" d="M568.82,67.25h1.63v7.57h-1.63Z"/><path class="cls-4" d="M571.79,67.25h1.66l1.69,3.62.67,1.68h0a26.52,26.52,0,0,1-.22-2.8v-2.5h1.55v7.57h-1.66l-1.68-3.65-.67-1.66h0c.07.84.21,1.88.21,2.8v2.51h-1.55Z"/><path class="cls-4" d="M578.23,71.07c0-2.52,1.52-4,3.34-4a2.86,2.86,0,0,1,2.17,1l-.87,1.16a1.65,1.65,0,0,0-1.25-.59c-1,0-1.73.87-1.73,2.35s.6,2.38,1.86,2.38a1.07,1.07,0,0,0,.65-.19V72h-1.08V70.49h2.53V74a3.17,3.17,0,0,1-2.26.93C579.71,75,578.23,73.63,578.23,71.07Z"/><path class="cls-4" d="M586.83,71.25v-4h1.62v4.2c0,1.43.38,1.94,1.13,1.94s1.15-.51,1.15-1.94v-4.2h1.57v4c0,2.55-.91,3.7-2.72,3.7S586.83,73.81,586.83,71.25Z"/><path class="cls-4" d="M593.6,67.25h1.66L597,70.87l.67,1.68h0a26.52,26.52,0,0,1-.22-2.8v-2.5H599v7.57h-1.66l-1.68-3.65L595,69.51h0c.07.84.21,1.88.21,2.8v2.51H593.6Z"/><path class="cls-4" d="M600.35,67.25H602v7.57h-1.63Z"/><path class="cls-4" d="M602.45,67.25h1.73L605,70.7c.2.81.33,1.6.53,2.42h0c.19-.82.34-1.61.53-2.42l.77-3.45h1.66l-2,7.57h-2Z"/><path class="cls-4" d="M609,67.25h4.31v1.51h-2.68v1.4h2.27v1.53h-2.27v1.61h2.78v1.53H609Z"/><path class="cls-4" d="M618.15,74.81l-1.25-2.66h-.79v2.66h-1.63V67.25H617c1.45,0,2.66.55,2.66,2.38a2.28,2.28,0,0,1-1.17,2.19l1.52,3Zm-2-4.1h.73c.78,0,1.19-.38,1.19-1.09s-.41-.95-1.19-.95h-.73Z"/><path class="cls-4" d="M620.29,73.87l.92-1.25a2.61,2.61,0,0,0,1.65.77c.6,0,.89-.25.89-.66s-.37-.58-1-.85l-.87-.41a2.2,2.2,0,0,1-1.38-2.07A2.33,2.33,0,0,1,623,67.11a3,3,0,0,1,2.21,1l-.81,1.14a2.08,2.08,0,0,0-1.4-.58c-.5,0-.81.22-.81.63s.43.58,1,.84l.85.38a2.08,2.08,0,0,1,1.34,2.07A2.39,2.39,0,0,1,622.83,75,3.59,3.59,0,0,1,620.29,73.87Z"/><path class="cls-4" d="M626.33,67.25H628v7.57h-1.63Z"/><path class="cls-4" d="M630.61,68.75h-1.84V67.25h5.31v1.51h-1.84v6.06h-1.63Z"/><path class="cls-4" d="M636.09,72.14l-2-4.89h1.73l.57,1.68.55,1.69h0c.19-.59.37-1.12.57-1.69l.57-1.68h1.71l-2.05,4.89v2.67h-1.62Z"/></g></g></svg>